# xmcd
#
# Track frame offsets: 
#        150
#        26386
#        50748
#        72876
#        104713
#        128408
#        153286
#        179362
#        207223
#        229656
#        255572
#
# Disc length: 3872 seconds
#
# Revision: 0
# Processed by: cddbd v1.5.1PL2 Copyright (c) Steve Scherf et al.
# Submitted via: ExactAudioCopy v0.95a5
#
DISCID=8f0f1e0b
DTITLE=Kal David and The Real Deal - Live At Blue Guitar
DYEAR=2001
DGENRE=Blues
TTITLE0=Yonder Wall
TTITLE1=I'll Play The Blues For You
TTITLE2=Hard Luck Story
TTITLE3=Killin' Floor
TTITLE4=Another Blue Monday
TTITLE5=A Good Fool Is Hard To Find
TTITLE6=Cry When I Leave
TTITLE7=Shadow Across The Land
TTITLE8=I Who Have Nothing
TTITLE9=Take What I Want
TTITLE10=Red House
EXTD=
EXTT0=
EXTT1=
EXTT2=
EXTT3=
EXTT4=
EXTT5=
EXTT6=
EXTT7=
EXTT8=
EXTT9=
EXTT10=
PLAYORDER=
